<svg viewBox="-2 -3 18 20">
<path d="M8.01 8.273c-2.26 0-4.138-1.877-4.138-4.098C3.872 1.877 5.75 0 8.011 0c2.337 0 4.138 1.877 4.138 4.175a4.112 4.112 0 0 1-4.138 4.098zm0-5.86c-.957 0-1.685.804-1.685 1.762 0 .957.728 1.685 1.686 1.685.996 0 1.686-.728 1.686-1.685 0-.958-.69-1.762-1.686-1.762zm1.648 9.269l2.338 2.26c.46.497.46 1.225 0 1.685-.498.497-1.265.497-1.648 0l-2.337-2.298-2.261 2.298c-.23.23-.537.344-.882.344-.268 0-.574-.115-.843-.344-.46-.46-.46-1.188 0-1.686l2.376-2.26A10.822 10.822 0 0 1 3.95 10.61c-.575-.306-.69-1.072-.384-1.647.384-.574 1.073-.727 1.687-.344a5.295 5.295 0 0 0 5.518 0c.613-.383 1.341-.23 1.686.344.345.575.191 1.34-.345 1.647-.728.46-1.571.805-2.453 1.073z" fill-rule="evenodd" fill="#fff"></path>
</svg>
