<svg viewBox="0 0 27 26">
<path d="M13.851 10.957C14.8666 10.957 15.6565 10.1213 15.6377 9.2113C15.6565 8.3013 14.8854 7.44702 13.8698 7.44702C12.8918 7.44702 12.083 8.22702 12.083 9.19273C12.083 10.1584 12.8729 10.957 13.851 10.957Z" fill="currentColor"></path>
<path d="M13.7008 0C6.44088 0 0.535156 5.8314 0.535156 12.9999C0.535156 20.187 6.44088 25.9999 13.7008 25.9999C20.9795 25.9999 26.8664 20.1685 26.8664 12.9999C26.8852 5.8314 20.9795 0 13.7008 0ZM13.8889 4.9214C16.2587 4.9214 18.2147 6.85282 18.1959 9.21138C18.1959 11.5885 16.2211 13.5014 13.8136 13.4642C11.4438 13.4271 9.54421 11.5142 9.54421 9.19281C9.54421 6.83425 11.4814 4.9214 13.8889 4.9214ZM18.7225 14.9499C18.7225 14.9871 18.7037 15.0056 18.7037 15.0428C18.6473 15.4142 18.4592 15.7114 18.1395 15.9156C17.9326 16.0456 17.7069 16.1756 17.4812 16.2871C16.917 16.5656 16.3151 16.7885 15.6944 16.9371C15.6192 16.9556 15.6192 16.9556 15.6756 17.0113C16.0142 17.3456 16.3715 17.6985 16.7101 18.0328C17.1427 18.4599 17.5941 18.9056 18.0266 19.3328C18.6473 19.9456 18.478 20.967 17.6881 21.3385C17.5564 21.4128 17.406 21.4313 17.2555 21.4685C17.1803 21.4685 17.0862 21.4685 17.011 21.4685C16.9922 21.4685 16.9734 21.4685 16.9734 21.4499C16.6725 21.4128 16.428 21.2642 16.2023 21.0599C15.4499 20.317 14.6788 19.5556 13.9265 18.8128C13.8701 18.7571 13.8701 18.7571 13.8136 18.8128C13.0425 19.5742 12.2902 20.317 11.5191 21.0785C11.3874 21.2085 11.2557 21.3013 11.0865 21.3756C10.9736 21.4313 10.842 21.4499 10.7291 21.4685C10.6539 21.4685 10.5787 21.4685 10.4846 21.4685C10.447 21.4685 10.4282 21.4499 10.3906 21.4499C9.88275 21.357 9.54421 21.0785 9.39374 20.5956C9.24328 20.1128 9.35613 19.6856 9.71348 19.3328C10.0332 19.017 10.3341 18.7199 10.6539 18.4042C11.1241 17.9399 11.5943 17.4756 12.0457 17.0299C12.1021 16.9742 12.1021 16.9742 12.0269 16.9556C12.0081 16.9556 11.9704 16.9371 11.9516 16.9371C11.1053 16.7328 10.3341 16.3985 9.60063 15.9528C9.16805 15.6742 8.96116 15.2656 9.01758 14.7642C9.11162 13.8356 10.1649 13.3342 10.9548 13.8356C11.1053 13.9285 11.2369 14.0028 11.4062 14.0771C12.2714 14.5042 13.193 14.6899 14.1522 14.6342C14.6224 14.6156 15.0926 14.5228 15.5628 14.3742C16.0142 14.2256 16.4091 14.0214 16.8229 13.7985C17.5 13.4085 18.384 13.7242 18.6473 14.4485C18.6849 14.5599 18.7037 14.6528 18.7225 14.7642C18.7225 14.8199 18.7225 14.8756 18.7225 14.9499Z" fill="currentColor"></path>
</svg>
